# xmcd
#
# Track frame offsets:
#	150
#	14776
#	29592
#	45938
#	62045
#	80587
#	91634
#	105574
#	122204
#	138630
#	155231
#	169566
#	187823
#	202816
#	221827
#	239054
#
# Disc length: 3432 seconds
#
# Revision: 0
# Processed by: cddbd v1.5.1PL2 Copyright (c) Steve Scherf et al.
# Submitted via: dBpowerAMP V4.0
#
DISCID=df0d6610
DTITLE=Paul Bailey - By Request
DYEAR=1900
DGENRE=
TTITLE0=Golden Wings
TTITLE1=Let Your Love flow
TTITLE2=Blue Rose Is
TTITLE3=Love Is In The Air
TTITLE4=Don't Close Your Eyes
TTITLE5=Cowgirl's Sweetheart
TTITLE6=Straight Tequilla
TTITLE7=When You Say Nothing At All
TTITLE8=Smokey Places
TTITLE9=The Losing Side Of me
TTITLE10=Elvis Rhumba
TTITLE11=No Time At All
TTITLE12=I Just Wanna Dance With You
TTITLE13=Red Hot Salsa
TTITLE14=Pizzaricco
TTITLE15=One Night At A Time
EXTD=
EXTT0=
EXTT1=
EXTT2=
EXTT3=
EXTT4=
EXTT5=
EXTT6=
EXTT7=
EXTT8=
EXTT9=
EXTT10=
EXTT11=
EXTT12=
EXTT13=
EXTT14=
EXTT15=
PLAYORDER=
